<svg width="35" height="35" viewBox="0 0 35 35" fill="none" xmlns="http://www.w3.org/2000/svg">
<path fill-rule="evenodd" clip-rule="evenodd" d="M30.7238 0C33.084 0 35 1.91611 35 4.27615V30.7238C35 33.0839 33.0839 35 30.7238 35H4.27615C1.91611 35 0 33.0839 0 30.7238V4.27615C0 1.91611 1.91604 0 4.27615 0H30.7238V0ZM17.5 5.53711C14.2511 5.53711 13.8437 5.55085 12.5677 5.60909C11.2944 5.6672 10.4248 5.8694 9.66383 6.1652C8.87715 6.4709 8.21003 6.87996 7.54496 7.54496C6.87989 8.21003 6.47083 8.87722 6.16513 9.66383C5.8694 10.4248 5.6672 11.2944 5.60902 12.5677C5.55085 13.8437 5.53711 14.2511 5.53711 17.5C5.53711 20.7489 5.55085 21.1563 5.60902 22.4323C5.6672 23.7056 5.8694 24.5752 6.16513 25.3362C6.47083 26.1228 6.87989 26.79 7.54496 27.455C8.21003 28.1201 8.87715 28.5292 9.66383 28.8349C10.4248 29.1306 11.2944 29.3328 12.5677 29.3909C13.8437 29.4492 14.2511 29.4629 17.5 29.4629C20.7489 29.4629 21.1563 29.4492 22.4323 29.3909C23.7056 29.3328 24.5752 29.1306 25.3362 28.8349C26.1228 28.5292 26.79 28.1201 27.455 27.455C28.1201 26.79 28.5292 26.1228 28.8349 25.3362C29.1306 24.5752 29.3328 23.7056 29.3909 22.4323C29.4492 21.1563 29.4629 20.7489 29.4629 17.5C29.4629 14.2511 29.4492 13.8437 29.3909 12.5677C29.3328 11.2944 29.1306 10.4248 28.8349 9.66383C28.5292 8.87722 28.1201 8.21003 27.455 7.54496C26.79 6.87996 26.1228 6.4709 25.3362 6.1652C24.5752 5.8694 23.7056 5.6672 22.4323 5.60909C21.1563 5.55085 20.7489 5.53711 17.5 5.53711ZM17.5 7.69262C20.6942 7.69262 21.0726 7.70479 22.334 7.76234C23.5004 7.8156 24.1338 8.01049 24.5554 8.17421C25.1138 8.39125 25.5123 8.65054 25.9309 9.0691C26.3495 9.48773 26.6087 9.88627 26.8258 10.4446C26.9896 10.8662 27.1845 11.4996 27.2377 12.666C27.2952 13.9274 27.3075 14.3058 27.3075 17.5C27.3075 20.6942 27.2952 21.0726 27.2377 22.334C27.1845 23.5004 26.9896 24.1338 26.8258 24.5554C26.6087 25.1138 26.3495 25.5123 25.9309 25.9309C25.5123 26.3495 25.1138 26.6087 24.5554 26.8258C24.1338 26.9896 23.5004 27.1845 22.334 27.2377C21.0728 27.2952 20.6944 27.3075 17.5 27.3075C14.3056 27.3075 13.9273 27.2952 12.666 27.2377C11.4996 27.1845 10.8662 26.9896 10.4446 26.8258C9.8862 26.6087 9.48773 26.3495 9.0691 25.9309C8.65047 25.5123 8.39118 25.1138 8.17421 24.5554C8.01042 24.1338 7.81553 23.5004 7.76228 22.334C7.70472 21.0726 7.69255 20.6942 7.69255 17.5C7.69255 14.3058 7.70472 13.9274 7.76228 12.666C7.81553 11.4996 8.01042 10.8662 8.17421 10.4446C8.39118 9.88627 8.65047 9.48773 9.0691 9.0691C9.48773 8.65054 9.8862 8.39125 10.4446 8.17421C10.8662 8.01049 11.4996 7.8156 12.666 7.76234C13.9274 7.70479 14.3058 7.69262 17.5 7.69262ZM17.5 11.3569C14.1073 11.3569 11.3569 14.1073 11.3569 17.5C11.3569 20.8927 14.1073 23.6431 17.5 23.6431C20.8927 23.6431 23.6431 20.8927 23.6431 17.5C23.6431 14.1073 20.8927 11.3569 17.5 11.3569ZM17.5 21.4876C15.2977 21.4876 13.5124 19.7023 13.5124 17.5C13.5124 15.2977 15.2977 13.5124 17.5 13.5124C19.7023 13.5124 21.4876 15.2977 21.4876 17.5C21.4876 19.7023 19.7023 21.4876 17.5 21.4876ZM25.3214 11.1142C25.3214 11.907 24.6786 12.5497 23.8858 12.5497C23.093 12.5497 22.4503 11.907 22.4503 11.1142C22.4503 10.3214 23.093 9.67866 23.8858 9.67866C24.6786 9.67866 25.3214 10.3214 25.3214 11.1142Z" fill="black"/>
</svg>
