<svg width="35" height="35" viewBox="0 0 35 35" fill="none" xmlns="http://www.w3.org/2000/svg">
<path fill-rule="evenodd" clip-rule="evenodd" d="M30.7238 0C33.084 0 35 1.91611 35 4.27615V30.7238C35 33.0839 33.0839 35 30.7238 35H4.27615C1.91611 35 0 33.0839 0 30.7238V4.27615C0 1.91611 1.91604 0 4.27615 0H30.7238V0ZM17.5 5.18055C10.3752 5.18055 4.85352 10.3995 4.85352 17.448C4.85352 21.1351 6.36501 24.3208 8.82561 26.5219C9.03164 26.7076 9.1564 26.9646 9.16658 27.242L9.23528 29.4914C9.25818 30.209 9.99858 30.6746 10.6552 30.387L13.164 29.2802C13.3778 29.1861 13.6145 29.1683 13.8384 29.2293C14.991 29.5473 16.2201 29.7153 17.5 29.7153C24.6248 29.7153 30.1465 24.4964 30.1465 17.448C30.1465 10.4019 24.6284 5.1841 17.5 5.18055ZM9.90705 21.0358L13.622 15.1426C14.2124 14.2062 15.4796 13.9721 16.3651 14.6362L19.3193 16.8525C19.5916 17.0561 19.9631 17.0536 20.2329 16.85L24.2227 13.8219C24.7545 13.4174 25.4518 14.0561 25.0929 14.621L21.3804 20.5116C20.7901 21.448 19.523 21.6821 18.6374 21.018L15.6832 18.8017C15.4109 18.5981 15.0394 18.6007 14.7697 18.8042L10.7773 21.8348C10.2473 22.238 9.55288 21.605 9.90705 21.0358Z" fill="black"/>
</svg>
