<svg width="35" height="35" viewBox="0 0 35 35" fill="none" xmlns="http://www.w3.org/2000/svg">
<path fill-rule="evenodd" clip-rule="evenodd" d="M30.7238 0C33.084 0 35 1.91611 35 4.27615V30.7238C35 33.0839 33.0839 35 30.7238 35H4.27615C1.91611 35 0 33.0839 0 30.7238V4.27615C0 1.91611 1.91604 0 4.27615 0H30.7238V0ZM13.3656 29.0216C22.6583 29.0216 27.7393 21.3214 27.7393 14.6478C27.7393 14.4278 27.7393 14.2077 27.7289 13.9982C28.7137 13.2858 29.5727 12.3953 30.2537 11.3791C29.3528 11.7772 28.3784 12.0496 27.3517 12.1754C28.3994 11.5467 29.1956 10.5619 29.5727 9.37809C28.5985 9.95429 27.5194 10.3734 26.367 10.6038C25.445 9.61905 24.1354 9.01141 22.6792 9.01141C19.8924 9.01141 17.6295 11.2744 17.6295 14.0611C17.6295 14.4592 17.6714 14.8468 17.7657 15.2135C13.5646 15.004 9.84546 12.9925 7.35205 9.93337C6.92248 10.6772 6.67105 11.5467 6.67105 12.4687C6.67105 14.2183 7.56157 15.7688 8.9235 16.6698C8.09587 16.6488 7.32061 16.4184 6.63961 16.0411V16.104C6.63961 18.5555 8.37874 20.588 10.6941 21.0594C10.275 21.1747 9.82454 21.2375 9.36353 21.2375C9.03875 21.2375 8.7245 21.2061 8.41019 21.1432C9.04928 23.1548 10.9141 24.6109 13.1246 24.6529C11.396 26.0044 9.2169 26.811 6.8492 26.811C6.44062 26.811 6.04249 26.7901 5.64437 26.7377C7.8549 28.1835 10.5159 29.0216 13.3656 29.0216Z" fill="black"/>
</svg>
